<?xml version="1.0" standalone="no"?>
<!DOCTYPE svg PUBLIC "-//W3C//DTD SVG 20010904//EN"
 "http://www.w3.org/TR/2001/REC-SVG-20010904/DTD/svg10.dtd">
<svg version="1.0" xmlns="http://www.w3.org/2000/svg"
 width="512.000000pt" height="512.000000pt" viewBox="0 0 512.000000 512.000000"
 preserveAspectRatio="xMidYMid meet">

<g transform="translate(0.000000,512.000000) scale(0.100000,-0.100000)"
fill="#000000" stroke="none">
<path d="M2555 5109 c-461 -35 -913 -201 -1285 -469 -52 -38 -112 -84 -132
-102 l-37 -33 -221 -1685 c-121 -927 -220 -1694 -220 -1706 0 -11 25 -53 55
-94 509 -681 1343 -1067 2183 -1011 181 12 362 39 491 75 l82 22 -73 23 c-164
52 -396 162 -556 263 -594 374 -1015 979 -1151 1658 -209 1039 235 2087 1129
2665 162 105 408 222 578 276 l74 24 -89 22 c-141 36 -307 62 -468 73 -166 11
-214 11 -360 -1z"/>
<path d="M3420 4324 c-14 -2 -59 -9 -100 -15 -427 -63 -842 -384 -1020 -788
-80 -183 -120 -368 -120 -556 0 -111 21 -281 42 -345 l11 -35 17 50 c114 334
385 635 711 789 108 51 224 91 314 107 l62 12 161 386 c89 212 162 389 162
394 0 7 -191 8 -240 1z"/>
<path d="M3525 3133 c-50 -3 -153 -19 -189 -30 -14 -4 1 -13 52 -33 78 -30
169 -79 220 -117 24 -18 39 -23 52 -17 29 14 181 162 172 168 -26 16 -220 34
-307 29z"/>
</g>
</svg>
